<svg xmlns="http://www.w3.org/2000/svg" fill="#fff" viewBox="0 0 1080 1080"><defs><filter id="a" width="140%" height="140%" x="-20%" y="-20%" color-interpolation-filters="linearRGB" filterUnits="objectBoundingBox" primitiveUnits="userSpaceOnUse"><feMorphology in="SourceAlpha" operator="dilate" radius="20 20" result="morphology"/><feFlood flood-color="#fff" flood-opacity="1" result="flood"/><feComposite in="flood" in2="morphology" operator="in" result="composite"/><feMerge result="merge"><feMergeNode in="composite"/><feMergeNode in="SourceGraphic"/></feMerge></filter></defs><g filter="url(#a)" transform="matrix(-1 0 0 1 1080 0)"><g fill="#fff"><path fill-rule="evenodd" stroke="#000" stroke-linecap="round" stroke-linejoin="round" stroke-width="24" d="M532 379c132.5483 0 240 107.4517 240 240 0 132.5483-67.4517 240-240 240-126.1575 0-196.1334-57.4404-224.6413-140.133C265.3367 716.4646 232 681.6254 232 639c0-39.865 29.1588-72.9197 67.312-78.9995C325.5994 455.9792 419.81 379 532 379ZM295.8589 624.5452l8.2822 30.9096"/></g><path fill-rule="evenodd" stroke="#000" stroke-linecap="round" stroke-linejoin="round" stroke-width="16" d="M673 568c-10.449 22.8361-15.6735 45.4141-15.6735 67.734 0 33.4797 15.6735 51.258 12.7347 66.8186-1.9592 10.3736-16.9796 12.2043-45.0612 5.4919"/><path fill-rule="evenodd" stroke="#000" stroke-linecap="round" stroke-linejoin="round" stroke-width="16" d="M549 759c27.3304 6.6667 50.6637 10 70 10s36.003-3.3333 50-10c-12.6696 33.3333-36.003 50-70 50s-50.6637-16.6667-50-50Z"/><path fill="#000" fill-rule="evenodd" d="M570 516c13.2548 0 24 10.7452 24 24s-10.7452 24-24 24-24-10.7452-24-24 10.7452-24 24-24Zm138 0c13.2548 0 24 10.7452 24 24s-10.7452 24-24 24-24-10.7452-24-24 10.7452-24 24-24Zm-146 10c-3.3137 0-6 2.6863-6 6s2.6863 6 6 6 6-2.6863 6-6-2.6863-6-6-6Zm138 0c-3.3137 0-6 2.6863-6 6s2.6863 6 6 6 6-2.6863 6-6-2.6863-6-6-6Z"/><g fill="#000" fill-rule="evenodd" stroke="#000" stroke-linecap="round" stroke-linejoin="round" stroke-width="8" clip-rule="evenodd"><path d="M682.541 491.005s46.103-1.789 59.272 4.144c13.169 5.933 11.397 16.335 11.397 16.335s-6.791-7.492-15.87-12.136c-9.08-4.645-54.799-8.343-54.799-8.343ZM595.459 491.005s-46.103-1.789-59.272 4.144c-13.169 5.933-11.397 16.335-11.397 16.335s6.791-7.492 15.87-12.136c9.08-4.645 54.799-8.343 54.799-8.343Z"/></g><path fill="#000" fill-rule="evenodd" stroke="#000" stroke-linecap="round" stroke-linejoin="round" stroke-width="12" d="m680 270-.1937 3.1608-.1966 3.0614c-3.2637 49.7115-9.168 85.1095-17.7124 106.1938L665 379c4.8186 7.7922 8.8186 16.1255 12 25 3.0368 8.471 5.3009 17.3603 6.7922 26.6675L684 432l-36.3916-28.9264-1.3809 1.0598C623.9043 421.2172 612.675 427.2728 580 434c-34 7-73.9176.921-120.544-7.7312l-8.199-1.509-3.012-.5473-2.8308-.5036c-30.0414-5.2682-45.1533-5.182-66.1184 21.8135-23.7043 30.5223 13.0687 53.6243 13.0687 71.2167 0 11.4937-8.4401 55.9855-25.3205 133.4754L366 655l-37.8833-90.175h-40.971c-15.3652-57.0776-19.0395-96.1719-11.0228-117.2828l.7475-1.9561.7846-2.0226C290.9032 409.704 325.6664 336.1482 426 325l9.0808-1.0045c79.1332-8.7143 82.0344-8.011 107.1286-14.968l5.2093-2.2493c11.2633-4.8809 20.4406-8.9765 27.533-12.2874l4.7115-2.2152C592.1679 286.375 607.6135 278.9499 626 270l-12.19 18.755L680 270Z"/></g></svg>