<?xml version="1.0" standalone="no"?>
<!DOCTYPE svg PUBLIC "-//W3C//DTD SVG 20010904//EN"
 "http://www.w3.org/TR/2001/REC-SVG-20010904/DTD/svg10.dtd">
<svg version="1.0" xmlns="http://www.w3.org/2000/svg"
 width="700.000000pt" height="700.000000pt" viewBox="0 0 700.000000 700.000000"
 preserveAspectRatio="xMidYMid meet">
<metadata>
Created by potrace 1.14, written by Peter Selinger 2001-2017
</metadata>
<g transform="translate(0.000000,700.000000) scale(0.100000,-0.100000)"
fill="#000000" stroke="none">
<path d="M784 5591 c1 -99 3 -182 6 -185 3 -3 46 -8 95 -11 120 -7 160 -12
225 -31 109 -31 164 -73 206 -155 51 -101 63 -209 64 -540 l0 -186 593 0 592
0 1 241 c0 270 12 370 53 461 35 77 69 116 123 143 97 48 202 67 386 71 l22 1
0 185 0 185 -1183 0 -1183 0 0 -179z"/>
<path d="M3854 5585 l0 -185 30 -1 c75 -1 165 -10 211 -19 28 -6 59 -12 71
-14 39 -8 111 -47 143 -78 50 -49 78 -112 108 -243 4 -16 8 -290 10 -607 l4
-578 -1525 0 -1526 0 -1 -892 c0 -491 -2 -900 -4 -908 -1 -8 -5 -44 -9 -80
-10 -112 -52 -215 -108 -267 -58 -55 -215 -100 -373 -107 -44 -2 -85 -4 -90
-5 -7 -1 -11 -64 -11 -186 l0 -185 1183 0 1183 0 -2 186 -3 187 -90 4 c-199
10 -339 57 -394 133 -35 49 -67 129 -76 191 -3 24 -9 53 -12 64 -4 11 -7 253
-8 537 l-1 518 1525 2 1526 3 1 960 c1 920 3 999 25 1090 50 201 167 274 467
291 53 3 99 7 101 10 3 3 5 86 6 184 l0 180 -1181 0 -1180 0 0 -185z"/>
<path d="M4430 2253 c-1 -255 -16 -365 -61 -455 -62 -122 -197 -183 -428 -192
l-86 -4 -1 -186 0 -186 1178 0 c935 0 1178 3 1179 13 6 57 2 350 -4 354 -5 3
-43 7 -85 9 -257 13 -379 64 -440 184 -51 102 -64 184 -65 427 l-2 213 -592 0
-593 0 0 -177z"/>
</g>
</svg>
